<svg xmlns="http://www.w3.org/2000/svg" viewBox="0 0 202.84 37.81"><defs><style>.cls-1{fill:#fff;}.cls-2{fill:#3a4072;}</style></defs><title>logo-lt</title><g id="Layer_2" data-name="Layer 2"><g id="Layer_1-2" data-name="Layer 1"><rect class="cls-1" width="122.16" height="37.81"/><path class="cls-2" d="M6.24,30.4A1.82,1.82,0,0,1,5.67,29V7.68a1.82,1.82,0,0,1,.57-1.36,1.9,1.9,0,0,1,1.38-.55h7.3c2.92,0,5.08.55,6.5,1.65A5.48,5.48,0,0,1,23.55,12a6,6,0,0,1-1.25,3.87,5.58,5.58,0,0,1-3.67,1.93v.07A7.15,7.15,0,0,1,23,19.81a6,6,0,0,1,1.59,4.39,5.87,5.87,0,0,1-.55,2.5,6.64,6.64,0,0,1-1.61,2.15,7.57,7.57,0,0,1-2.79,1.53,12.38,12.38,0,0,1-3.89.57H7.62A1.9,1.9,0,0,1,6.24,30.4Zm8-13.91a7,7,0,0,0,4.15-1,3.78,3.78,0,0,0,1.26-3.21,4.08,4.08,0,0,0-.36-1.83,2.29,2.29,0,0,0-1.1-1.07A5.5,5.5,0,0,0,16.68,9a12.59,12.59,0,0,0-2-.13h-5v7.67ZM15,27.86A7.83,7.83,0,0,0,19.2,27c.85-.57,1.27-1.66,1.27-3.29A4.74,4.74,0,0,0,20.18,22a3,3,0,0,0-.81-1.22A3.6,3.6,0,0,0,18,20a10.17,10.17,0,0,0-1.84-.36q-1-.09-2.37-.09H9.65v8.31Z"/><path class="cls-2" d="M30.93,30.51a7.71,7.71,0,0,1-2.82-2,9,9,0,0,1-1.67-2.87,10.3,10.3,0,0,1-.58-3.46,10.52,10.52,0,0,1,.58-3.49,8.86,8.86,0,0,1,1.68-2.87,7.61,7.61,0,0,1,2.81-2,9.89,9.89,0,0,1,3.85-.72,9.24,9.24,0,0,1,4.84,1.23,7.92,7.92,0,0,1,3.06,3.26,10.12,10.12,0,0,1,1,4.56,10.32,10.32,0,0,1-.58,3.45,9,9,0,0,1-1.67,2.88,7.71,7.71,0,0,1-2.82,2,10.49,10.49,0,0,1-7.69,0Zm7.84-3.46a7.55,7.55,0,0,0,1.42-4.85,7.53,7.53,0,0,0-1.44-4.86,4.83,4.83,0,0,0-4-1.78,4.86,4.86,0,0,0-4,1.77,7.59,7.59,0,0,0-1.43,4.87,7.48,7.48,0,0,0,1.44,4.85,4.83,4.83,0,0,0,4,1.78A4.9,4.9,0,0,0,38.77,27.05Z"/><path class="cls-2" d="M49.74,30.51a7.75,7.75,0,0,1-2.81-2,9,9,0,0,1-1.67-2.87,10.3,10.3,0,0,1-.58-3.46,10.52,10.52,0,0,1,.58-3.49,8.86,8.86,0,0,1,1.68-2.87,7.61,7.61,0,0,1,2.81-2,9.88,9.88,0,0,1,3.84-.72,9.25,9.25,0,0,1,4.85,1.23,7.92,7.92,0,0,1,3.06,3.26,10.12,10.12,0,0,1,1,4.56,10.32,10.32,0,0,1-.58,3.45,9,9,0,0,1-1.67,2.88,7.71,7.71,0,0,1-2.82,2,10.52,10.52,0,0,1-7.7,0Zm7.84-3.46A7.49,7.49,0,0,0,59,22.2a7.53,7.53,0,0,0-1.44-4.86,5.35,5.35,0,0,0-8,0,7.59,7.59,0,0,0-1.43,4.87,7.48,7.48,0,0,0,1.44,4.85,5.34,5.34,0,0,0,8,0Z"/><path class="cls-2" d="M65.14,30.49a1.69,1.69,0,0,1-.51-1.31V7.54a1.62,1.62,0,0,1,.52-1.28,1.84,1.84,0,0,1,1.27-.48,1.72,1.72,0,0,1,1.22.48,1.62,1.62,0,0,1,.52,1.28V20.92L76,13.59a1.38,1.38,0,0,1,.45-.29,1.27,1.27,0,0,1,.5-.1,1.47,1.47,0,0,1,1.09.49,1.59,1.59,0,0,1,.47,1.11,1.28,1.28,0,0,1-.44,1l-6,5.57,6.72,7.07a1.44,1.44,0,0,1,.44,1,1.49,1.49,0,0,1-.23.77,1.76,1.76,0,0,1-.62.59,1.63,1.63,0,0,1-.8.22,1.44,1.44,0,0,1-.4-.06,1.38,1.38,0,0,1-.4-.17,1.76,1.76,0,0,1-.36-.32l-8.16-8.61v7.33a1.65,1.65,0,0,1-.54,1.3,1.79,1.79,0,0,1-1.25.47A1.76,1.76,0,0,1,65.14,30.49Z"/><path class="cls-2" d="M93.47,29.78a3,3,0,0,1-1-1.3L84.87,10.92V29.27a1.14,1.14,0,0,1-.55,1,2.49,2.49,0,0,1-2.58,0,1.15,1.15,0,0,1-.54-1V9a2.29,2.29,0,0,1,.89-1.86A3.18,3.18,0,0,1,84.2,6.4,3.37,3.37,0,0,1,86.08,7a3.71,3.71,0,0,1,1.37,1.71l7.37,16.76,7.36-16.76A3.77,3.77,0,0,1,103.55,7a3.43,3.43,0,0,1,1.89-.57,3.15,3.15,0,0,1,2.1.74,2.3,2.3,0,0,1,.9,1.86V29.27a1.15,1.15,0,0,1-.54,1,2.51,2.51,0,0,1-2.59,0,1.15,1.15,0,0,1-.54-1V10.92L97.14,28.48a3,3,0,0,1-1,1.3,2.24,2.24,0,0,1-1.33.45A2.32,2.32,0,0,1,93.47,29.78Z"/><path class="cls-2" d="M112.78,9a2,2,0,0,1-.62-1.5A2,2,0,0,1,112.78,6a2.29,2.29,0,0,1,1.61-.58A2.22,2.22,0,0,1,116,6a2,2,0,0,1,.59,1.52A2,2,0,0,1,116,9a2.52,2.52,0,0,1-3.19,0Zm.33,21.49a1.7,1.7,0,0,1-.51-1.32v-14a1.65,1.65,0,0,1,.54-1.3,1.83,1.83,0,0,1,1.25-.47,1.8,1.8,0,0,1,1.23.47,1.64,1.64,0,0,1,.53,1.3v14a1.67,1.67,0,0,1-.53,1.3,1.94,1.94,0,0,1-2.51,0Z"/><path class="cls-1" d="M129.27,30.46a1.76,1.76,0,0,1-.6-1.42V7.75a1.89,1.89,0,0,1,.59-1.4,2,2,0,0,1,1.43-.58h7.56q4.37,0,6.66,1.71t2.31,5.58a8.26,8.26,0,0,1-.66,3.45,5.23,5.23,0,0,1-1.93,2.27A8.64,8.64,0,0,1,141.72,20a16.85,16.85,0,0,1-3.82.38h-5.24V29a1.78,1.78,0,0,1-.58,1.42,2.08,2.08,0,0,1-1.4.51A2.11,2.11,0,0,1,129.27,30.46Zm8.54-13.13a7.21,7.21,0,0,0,4.15-.94,3.82,3.82,0,0,0,1.32-3.33A3.67,3.67,0,0,0,142,9.83a7.08,7.08,0,0,0-4-.9h-5.31v8.4Z"/><path class="cls-1" d="M149.18,30.5a1.7,1.7,0,0,1-.51-1.32V7.54a1.63,1.63,0,0,1,.53-1.28,1.85,1.85,0,0,1,2.49,0,1.63,1.63,0,0,1,.53,1.28V29.18a1.65,1.65,0,0,1-.54,1.3,1.87,1.87,0,0,1-1.27.47A1.79,1.79,0,0,1,149.18,30.5Z"/><path class="cls-1" d="M155.92,29.92a4.44,4.44,0,0,1-1.72-3.75,6.67,6.67,0,0,1,.22-1.82A4.65,4.65,0,0,1,155,23a3.09,3.09,0,0,1,1.1-1,8.75,8.75,0,0,1,1.54-.64,12.27,12.27,0,0,1,2.11-.38c.86-.08,1.73-.14,2.6-.17s1.94-.05,3.21-.05V19.07q0-3.56-3.55-3.55a9.94,9.94,0,0,0-2.13.24,12.86,12.86,0,0,0-1.64.45l-1.47.59a1.12,1.12,0,0,1-.44.09,1.14,1.14,0,0,1-.33-.05,1.4,1.4,0,0,1-.3-.15,1.38,1.38,0,0,1-.26-.23,1.73,1.73,0,0,1-.19-.28,1.66,1.66,0,0,1-.12-.31,1.12,1.12,0,0,1,0-.31,1.09,1.09,0,0,1,.14-.54,1.15,1.15,0,0,1,.44-.4,13.47,13.47,0,0,1,6.47-1.47,7.85,7.85,0,0,1,5.1,1.51,5.72,5.72,0,0,1,1.86,4.71v9.91a1.53,1.53,0,0,1-.52,1.24,1.87,1.87,0,0,1-1.23.45,1.92,1.92,0,0,1-.84-.18,1.68,1.68,0,0,1-.63-.56,1.62,1.62,0,0,1-.26-.91V28a5.41,5.41,0,0,1-5.25,3.22A7.15,7.15,0,0,1,155.92,29.92Zm8.19-2.59a5.65,5.65,0,0,0,1.46-4v-.49c-1.12,0-2.06,0-2.81,0s-1.44.09-2.08.18a6.7,6.7,0,0,0-1.51.34,2.91,2.91,0,0,0-.94.58,1.79,1.79,0,0,0-.53.87,4.21,4.21,0,0,0-.14,1.2,2.63,2.63,0,0,0,.86,2.18,3.55,3.55,0,0,0,2.32.71A4.44,4.44,0,0,0,164.11,27.33Z"/><path class="cls-1" d="M175.16,30a7.83,7.83,0,0,1-2.95-3.27,10.18,10.18,0,0,1-1-4.56,9.79,9.79,0,0,1,1-4.54,8.14,8.14,0,0,1,3.05-3.27,8.64,8.64,0,0,1,4.58-1.22,9.05,9.05,0,0,1,2.8.41,7.24,7.24,0,0,1,2,1,1.38,1.38,0,0,1,.67,1.11,1,1,0,0,1-.15.52,1,1,0,0,1-.4.37,1.2,1.2,0,0,1-.57.13,1.53,1.53,0,0,1-.76-.21,6.4,6.4,0,0,0-3.39-.93,4.78,4.78,0,0,0-3.91,1.82,7.47,7.47,0,0,0-1.47,4.84,9.36,9.36,0,0,0,.56,3.32,5.34,5.34,0,0,0,1.77,2.39,4.61,4.61,0,0,0,2.87.92,6.58,6.58,0,0,0,3.85-1.07,1.19,1.19,0,0,1,.4-.21,1.37,1.37,0,0,1,.39-.06,1.18,1.18,0,0,1,.43.08,1.11,1.11,0,0,1,.34.22,1,1,0,0,1,.23.34,1.25,1.25,0,0,1,.08.42,1.32,1.32,0,0,1-.15.58,1.85,1.85,0,0,1-.47.56,8.19,8.19,0,0,1-5.36,1.55A8.3,8.3,0,0,1,175.16,30Z"/><path class="cls-1" d="M188.82,28.75a9,9,0,0,1-2.45-6.67,10,10,0,0,1,.57-3.39,8.78,8.78,0,0,1,1.63-2.84,7.28,7.28,0,0,1,2.68-2,8.66,8.66,0,0,1,3.61-.73,8.93,8.93,0,0,1,3.58.68,6.41,6.41,0,0,1,2.48,1.88,8.83,8.83,0,0,1,1.4,2.69,11.1,11.1,0,0,1,.52,3.24,1.53,1.53,0,0,1-.28.95,1,1,0,0,1-.84.37H189.94a6,6,0,0,0,1.56,4.34,5.62,5.62,0,0,0,3.92,1.46,6.36,6.36,0,0,0,2.64-.54,13.47,13.47,0,0,0,2.44-1.45,1.46,1.46,0,0,1,.35-.18.93.93,0,0,1,.89.1,1.19,1.19,0,0,1,.41.45,1.27,1.27,0,0,1,.15.6,1.34,1.34,0,0,1-.14.58,1.31,1.31,0,0,1-.41.51,9.62,9.62,0,0,1-6.57,2.41A8.79,8.79,0,0,1,188.82,28.75Zm11-7.94A6.65,6.65,0,0,0,198.45,17,4.12,4.12,0,0,0,195,15.56a5,5,0,0,0-2.11.44,4.4,4.4,0,0,0-1.56,1.22,6.33,6.33,0,0,0-.95,1.68,7.58,7.58,0,0,0-.43,1.91Z"/></g></g></svg>